<?xml version="1.0" encoding="UTF-8" standalone="no"?><!-- Generator: Gravit.io --><svg xmlns="http://www.w3.org/2000/svg" xmlns:xlink="http://www.w3.org/1999/xlink" style="isolation:isolate" viewBox="0 0 565.5 430" width="565.5pt" height="430pt"><defs><clipPath id="_clipPath_u0Z36DYasg7exT7OlGWInY5TQ4yn6Dx2"><rect width="565.5" height="430"/></clipPath></defs><g clip-path="url(#_clipPath_u0Z36DYasg7exT7OlGWInY5TQ4yn6Dx2)"><g opacity="0.49"><path d=" M 82.033 137.7 L 82.033 28.5 C 82.033 14.702 93.235 3.5 107.033 3.5 L 312.016 3.5 C 325.814 3.5 337.016 14.702 337.016 28.5 L 337.016 92.964 C 337.016 109.522 350.459 122.964 367.016 122.964 L 540.5 122.964 C 554.298 122.964 565.5 134.166 565.5 147.964 L 565.5 298.964 C 565.5 312.762 554.298 323.964 540.5 323.964 L 394.016 323.964 C 377.459 323.964 364.016 332.808 364.016 343.7 L 364.016 343.7 C 364.016 357.498 352.814 368.7 339.016 368.7 L 25.014 368.7 C 11.216 368.7 0.014 357.498 0.014 343.7 L 0.014 192.7 C 0.014 178.902 11.216 167.7 25.014 167.7 L 52.033 167.7 C 68.59 167.7 82.033 154.257 82.033 137.7 Z " fill="rgb(227,243,254)"/></g><path d=" M 227.757 360.5 L 246.757 418.5 Q 252.557 422.65 256.757 421.5 Q 260.957 420.35 263.757 418.5 L 263.757 367.5 L 227.757 360.5 Z " fill="rgb(115,182,254)"/><path d=" M 238.79 394.179 L 227.757 360.5 L 263.757 367.5 L 263.757 373.44 Q 247.76 369.266 243.987 378.5 Q 240.839 386.202 238.79 394.179 Z " fill-rule="evenodd" fill="rgb(59,130,246)"/><path d=" M 277.757 366.5 L 282.757 419.5 Q 291.307 422.65 294.757 419.5 Q 298.207 416.35 298.757 415.5 L 302.757 358.5 C 289.88 358.933 281.557 361.609 277.757 366.5 Z " fill="rgb(115,182,254)"/><path d=" M 279.88 389.009 L 277.757 366.5 C 281.557 361.609 289.88 358.933 302.757 358.5 L 302.035 368.784 Q 297.979 366.73 292.757 367.5 Q 285.049 368.636 279.88 389.009 Z " fill-rule="evenodd" fill="rgb(59,131,247)"/><path d=" M 232.757 245.5 L 207.757 340.5 Q 224.424 366.5 252.757 368.5 Q 281.09 370.5 321.757 352.5 L 300.757 245.5 C 268.372 242.181 245.715 242.191 232.757 245.5 Z " fill="rgb(115,182,254)"/><path d=" M 230.815 252.879 L 232.757 245.5 C 245.715 242.191 268.372 242.181 300.757 245.5 L 302.634 255.064 C 294.548 257.175 282.895 258.5 269.949 258.5 C 252.97 258.5 238.215 256.22 230.815 252.879 Z " fill-rule="evenodd" fill="rgb(59,131,247)"/><path d=" M 163.757 97.5 C 172.788 109.689 181.798 118.032 190.757 122.5 C 244.917 127.415 308.927 127.425 382.757 122.5 L 346.757 97.5 L 163.757 97.5 Z " fill="rgb(143,197,255)"/><path d=" M 163.757 97.5 Q 163.757 176.3 163.757 196.5 C 163.757 216.7 175.157 244.3 211.757 245.5 C 248.357 246.7 330.49 245.5 342.757 245.5 C 355.024 245.5 378.757 235.633 378.757 212.5 Q 378.757 189.367 382.757 122.5 L 190.757 122.5 L 163.757 97.5 Z " fill="rgb(114,183,254)"/><path d=" M 220.987 245.737 Q 220.873 245.619 220.757 245.5 Q 196.257 245.5 190.757 206.5 L 190.757 122.5 L 163.757 97.5 Q 163.757 176.3 163.757 196.5 C 163.757 216.7 175.157 244.3 211.757 245.5 C 214.58 245.593 217.674 245.671 220.987 245.737 Z " fill-rule="evenodd" fill="rgb(59,130,246)"/><circle vector-effect="non-scaling-stroke" cx="221.8149915930975" cy="213.49999999999997" r="9" fill="rgb(24,0,42)"/><circle vector-effect="non-scaling-stroke" cx="351.75690333509743" cy="213.49999999999997" r="9" fill="rgb(24,0,42)"/><path d=" M 226.099 191.917 L 302.757 336.5 L 316.757 328.5 L 244.067 188.935 C 242.792 186.487 239.547 184.868 236.825 185.322 L 228.689 186.678 C 225.967 187.132 224.806 189.479 226.099 191.917 Z " fill="rgb(191,137,0)"/><path d=" M 194.757 42.5 L 207.757 53.5 L 207.757 115.5 L 194.757 103.4 L 194.757 42.5 Z " fill="rgb(189,200,210)"/><path d=" M 224.757 115.5 L 207.757 115.5 L 207.757 53.5 L 224.757 53.5 L 224.757 115.5 Z " fill="rgb(239,236,237)"/><path d=" M 194.757 42.5 L 209.757 42.5 L 224.757 53.5 L 207.757 53.5 L 194.757 42.5 Z " fill="rgb(251,251,251)"/><path d=" M 321.757 42.5 L 334.757 53.5 L 334.757 115.5 L 321.757 103.4 L 321.757 42.5 Z " fill="rgb(189,200,210)"/><path d=" M 351.757 115.5 L 334.757 115.5 L 334.757 53.5 L 351.757 53.5 L 351.757 115.5 Z " fill="rgb(238,236,236)"/><path d=" M 321.757 42.5 L 336.757 42.5 L 351.757 53.5 L 334.757 53.5 L 321.757 42.5 Z " fill="rgb(251,251,251)"/><path d=" M 311.757 325.5 Q 328.257 321.325 337.757 328.5 Q 347.257 335.675 403.866 381.36 C 406.013 383.093 406.381 386.268 404.687 388.447 L 396.827 398.553 C 395.132 400.732 391.872 401.288 389.551 399.796 L 365.757 384.5 L 379.867 404.42 C 381.462 406.672 380.819 409.625 378.433 411.011 L 356.081 423.989 C 353.694 425.375 350.462 424.672 348.867 422.42 L 334.757 402.5 L 340.357 421.7 C 341.13 424.349 339.516 426.5 336.757 426.5 L 316.757 426.5 C 313.997 426.5 311.35 424.297 310.848 421.583 Q 298.257 353.45 298.757 345.5 Q 299.257 337.55 302.757 331.5 L 311.757 325.5 Z " fill="rgb(221,196,31)"/><path d=" M 365.757 384.5 L 379.867 404.42 C 380.684 405.573 380.914 406.91 380.623 408.126 L 378.142 411.179 L 356.081 423.989 C 353.694 425.375 350.462 424.672 348.867 422.42 L 334.757 402.5 L 325.757 357.5 L 365.757 384.5 Z " fill-rule="evenodd" fill="rgb(191,169,26)"/><path d="M 480.17 347.66 L 517.33 347.66 C 521.977 347.66 525.75 351.433 525.75 356.08 L 525.75 356.08 C 525.75 360.727 521.977 364.5 517.33 364.5 L 480.17 364.5 C 475.523 364.5 471.75 360.727 471.75 356.08 L 471.75 356.08 C 471.75 351.433 475.523 347.66 480.17 347.66 Z" style="stroke:none;fill:#EBEBEB;stroke-miterlimit:10;"/><circle vector-effect="non-scaling-stroke" cx="447.17405090143006" cy="377.3396104746451" r="8.419805237322521" fill="rgb(235,235,235)"/><circle vector-effect="non-scaling-stroke" cx="391.17670857242007" cy="418.0801947626775" r="8.419805237322521" fill="rgb(235,235,235)"/><circle vector-effect="non-scaling-stroke" cx="414.17139323044006" cy="352.0801947626775" r="8.419805237322521" fill="rgb(235,235,235)"/><path d="M 107.755 176.5 L 107.755 176.5 C 110.49 176.5 112.71 178.719 112.71 181.453 L 112.71 188.527 C 112.71 191.261 110.49 193.48 107.755 193.48 L 107.755 193.48 C 105.02 193.48 102.8 191.261 102.8 188.527 L 102.8 181.453 C 102.8 178.719 105.02 176.5 107.755 176.5 Z" style="stroke:none;fill:#72B7FE;stroke-miterlimit:10;"/><path d="M 107.755 217.52 L 107.755 217.52 C 110.49 217.52 112.71 219.739 112.71 222.473 L 112.71 229.548 C 112.71 232.281 110.49 234.5 107.755 234.5 L 107.755 234.5 C 105.02 234.5 102.8 232.281 102.8 229.548 L 102.8 222.473 C 102.8 219.739 105.02 217.52 107.755 217.52 Z" style="stroke:none;fill:#72B7FE;stroke-miterlimit:10;"/><path d="M 95.73 205.5 L 95.73 205.5 C 95.73 208.232 93.511 210.45 90.777 210.45 L 83.703 210.45 C 80.969 210.45 78.75 208.232 78.75 205.5 L 78.75 205.5 C 78.75 202.768 80.969 200.55 83.703 200.55 L 90.777 200.55 C 93.511 200.55 95.73 202.768 95.73 205.5 Z" style="stroke:none;fill:#72B7FE;stroke-miterlimit:10;"/><path d="M 136.75 205.5 L 136.75 205.5 C 136.75 208.232 134.532 210.45 131.8 210.45 L 124.73 210.45 C 121.998 210.45 119.78 208.232 119.78 205.5 L 119.78 205.5 C 119.78 202.768 121.998 200.55 124.73 200.55 L 131.8 200.55 C 134.532 200.55 136.75 202.768 136.75 205.5 Z" style="stroke:none;fill:#72B7FE;stroke-miterlimit:10;"/><path d="M 440.25 75.5 L 440.25 75.5 C 442.276 75.5 443.92 77.145 443.92 79.172 L 443.92 84.418 C 443.92 86.445 442.276 88.09 440.25 88.09 L 440.25 88.09 C 438.224 88.09 436.58 86.445 436.58 84.418 L 436.58 79.172 C 436.58 77.145 438.224 75.5 440.25 75.5 Z" style="stroke:none;fill:#72B7FE;stroke-miterlimit:10;"/><path d="M 440.25 105.91 L 440.25 105.91 C 442.276 105.91 443.92 107.555 443.92 109.582 L 443.92 114.828 C 443.92 116.855 442.276 118.5 440.25 118.5 L 440.25 118.5 C 438.224 118.5 436.58 116.855 436.58 114.828 L 436.58 109.582 C 436.58 107.555 438.224 105.91 440.25 105.91 Z" style="stroke:none;fill:#72B7FE;stroke-miterlimit:10;"/><path d="M 431.34 97 L 431.34 97 C 431.34 99.026 429.695 100.67 427.668 100.67 L 422.422 100.67 C 420.395 100.67 418.75 99.026 418.75 97 L 418.75 97 C 418.75 94.974 420.395 93.33 422.422 93.33 L 427.668 93.33 C 429.695 93.33 431.34 94.974 431.34 97 Z" style="stroke:none;fill:#72B7FE;stroke-miterlimit:10;"/><path d="M 461.75 97 L 461.75 97 C 461.75 99.026 460.106 100.67 458.081 100.67 L 452.839 100.67 C 450.814 100.67 449.17 99.026 449.17 97 L 449.17 97 C 449.17 94.974 450.814 93.33 452.839 93.33 L 458.081 93.33 C 460.106 93.33 461.75 94.974 461.75 97 Z" style="stroke:none;fill:#72B7FE;stroke-miterlimit:10;"/></g></svg>