<?xml version="1.0" encoding="UTF-8" standalone="no"?><!-- Generator: Gravit.io --><svg xmlns="http://www.w3.org/2000/svg" xmlns:xlink="http://www.w3.org/1999/xlink" style="isolation:isolate" viewBox="0 0 486.4 413.5" width="486.4pt" height="413.5pt"><defs><clipPath id="_clipPath_tq1xOpbH0gzofN0Ou2G5D5aq43Y6IXvk"><rect width="486.4" height="413.5"/></clipPath></defs><g clip-path="url(#_clipPath_tq1xOpbH0gzofN0Ou2G5D5aq43Y6IXvk)"><g opacity="0.6"><path d=" M 416.839 176.473 L 416.839 21.942 C 416.839 9.832 407.007 0 394.897 0 L 155.561 0 C 143.451 0 133.619 9.832 133.619 21.942 L 133.619 91.5 C 133.619 108.057 120.177 121.5 103.619 121.5 L 22.776 121.5 C 10.206 121.5 0 131.706 0 144.276 L 0 305.778 C 0 318.348 10.206 328.554 22.776 328.554 L 61.143 328.554 C 77.701 328.554 91.143 341.996 91.143 358.554 L 91.143 389.007 C 91.143 402.54 102.13 413.527 115.663 413.527 L 461.843 413.527 C 475.376 413.527 486.363 402.54 486.363 389.007 L 486.363 230.993 C 486.363 217.46 475.376 206.473 461.843 206.473 L 446.839 206.473 C 430.282 206.473 416.839 193.031 416.839 176.473 Z " fill="rgb(227,242,255)"/></g><path d=" M 168.619 243 C 171.67 284.832 171.013 329.509 166.619 377 L 139.619 328 L 139.619 284 C 146.324 270.153 156 256.496 168.619 243 Z " fill="rgb(159,141,114)"/><path d=" M 139.619 223 L 98.619 275 L 118.619 313 L 168.619 243 L 139.619 223 Z " fill="rgb(219,196,162)"/><path d=" M 356.619 309 L 168.619 243 L 166.619 377 L 359.619 377 L 359.619 319 L 356.619 309 Z " fill="rgb(190,168,136)"/><path d=" M 359.619 243 L 168.619 243 L 186.619 325 C 236.402 320.587 302.412 318.597 384.619 319 L 359.619 243 Z " fill="rgb(218,196,163)"/><path d=" M 168.619 243 L 139.619 223 L 288.619 222 L 359.619 243 L 168.619 243 Z " fill="rgb(140,120,89)"/><path d=" M 221.619 243 L 233.619 210 C 250.286 206.067 267.629 206.077 285.619 210 L 297.619 243" fill="rgb(114,183,254)"/><path d=" M 231.028 217.126 L 233.619 210 C 250.286 206.067 267.629 206.077 285.619 210 L 288.753 218.619 C 281.621 221.338 272.087 223 261.619 223 C 249.352 223 238.368 220.717 231.028 217.126 Z " fill-rule="evenodd" fill="rgb(59,131,247)"/><path d=" M 166.619 95 L 186.619 88 L 352.619 88 L 352.619 181 Q 348.894 210 320.619 210 C 292.344 210 225.469 210 199.619 210 Q 173.769 210 166.619 178 L 166.619 95 Z " fill="rgb(114,182,255)"/><path d=" M 186.619 88 L 166.619 95 L 166.619 178 Q 173.769 210 199.619 210 L 199.619 210 C 204.69 210 211.341 210 218.969 210 Q 186.619 197.333 186.619 181 Q 186.619 164.667 186.619 88 Z " fill-rule="evenodd" fill="rgb(59,130,246)"/><circle vector-effect="non-scaling-stroke" cx="219.11908490929898" cy="180" r="8" fill="rgb(18,0,57)"/><circle vector-effect="non-scaling-stroke" cx="330.119084909299" cy="180" r="8" fill="rgb(18,0,57)"/><path d=" M 293.619 88 L 293.619 36 L 311.619 26 L 327.619 26 L 327.619 88 L 293.619 88 Z " fill="rgb(239,236,237)"/><path d=" M 293.619 88 L 293.619 36 L 311.619 26.666 L 311.619 88 L 293.619 88 Z " fill="rgb(189,200,210)"/><path d=" M 193.619 88 L 193.619 34 L 207.619 26 L 223.619 26 L 223.619 88 L 193.619 88 Z " fill="rgb(238,236,236)"/><path d=" M 193.619 88 L 193.619 34 L 207.619 26.666 L 207.619 88 L 193.619 88 Z " fill="rgb(188,201,210)"/><path d="M 449.84 108 L 449.84 108 C 451.772 108 453.34 109.568 453.34 111.5 L 453.34 116.5 C 453.34 118.432 451.772 120 449.84 120 L 449.84 120 C 447.908 120 446.34 118.432 446.34 116.5 L 446.34 111.5 C 446.34 109.568 447.908 108 449.84 108 Z" style="stroke:none;fill:#72B7FE;stroke-miterlimit:10;"/><path d="M 449.84 137 L 449.84 137 C 451.772 137 453.34 138.568 453.34 140.5 L 453.34 145.5 C 453.34 147.432 451.772 149 449.84 149 L 449.84 149 C 447.908 149 446.34 147.432 446.34 145.5 L 446.34 140.5 C 446.34 138.568 447.908 137 449.84 137 Z" style="stroke:none;fill:#72B7FE;stroke-miterlimit:10;"/><path d="M 441.34 128.5 L 441.34 128.5 C 441.34 130.432 439.772 132 437.84 132 L 432.84 132 C 430.908 132 429.34 130.432 429.34 128.5 L 429.34 128.5 C 429.34 126.568 430.908 125 432.84 125 L 437.84 125 C 439.772 125 441.34 126.568 441.34 128.5 Z" style="stroke:none;fill:#72B7FE;stroke-miterlimit:10;"/><path d="M 470.34 128.5 L 470.34 128.5 C 470.34 130.432 468.772 132 466.84 132 L 461.84 132 C 459.908 132 458.34 130.432 458.34 128.5 L 458.34 128.5 C 458.34 126.568 459.908 125 461.84 125 L 466.84 125 C 468.772 125 470.34 126.568 470.34 128.5 Z" style="stroke:none;fill:#72B7FE;stroke-miterlimit:10;"/><path d="M 70.645 172.53 L 70.645 172.53 C 72.243 172.53 73.54 173.828 73.54 175.426 L 73.54 179.564 C 73.54 181.162 72.243 182.46 70.645 182.46 L 70.645 182.46 C 69.047 182.46 67.75 181.162 67.75 179.564 L 67.75 175.426 C 67.75 173.828 69.047 172.53 70.645 172.53 Z" style="stroke:none;fill:#72B7FE;stroke-miterlimit:10;"/><path d="M 70.645 196.54 L 70.645 196.54 C 72.243 196.54 73.54 197.838 73.54 199.436 L 73.54 203.574 C 73.54 205.172 72.243 206.47 70.645 206.47 L 70.645 206.47 C 69.047 206.47 67.75 205.172 67.75 203.574 L 67.75 199.436 C 67.75 197.838 69.047 196.54 70.645 196.54 Z" style="stroke:none;fill:#72B7FE;stroke-miterlimit:10;"/><path d="M 63.61 189.5 L 63.61 189.5 C 63.61 191.101 62.311 192.4 60.711 192.4 L 56.569 192.4 C 54.969 192.4 53.67 191.101 53.67 189.5 L 53.67 189.5 C 53.67 187.899 54.969 186.6 56.569 186.6 L 60.711 186.6 C 62.311 186.6 63.61 187.899 63.61 189.5 Z" style="stroke:none;fill:#72B7FE;stroke-miterlimit:10;"/><path d="M 87.62 189.5 L 87.62 189.5 C 87.62 191.101 86.321 192.4 84.721 192.4 L 80.579 192.4 C 78.979 192.4 77.68 191.101 77.68 189.5 L 77.68 189.5 C 77.68 187.899 78.979 186.6 80.579 186.6 L 84.721 186.6 C 86.321 186.6 87.62 187.899 87.62 189.5 Z" style="stroke:none;fill:#72B7FE;stroke-miterlimit:10;"/><path d=" M 418.839 330.921 L 418.839 330.921 L 418.839 330.921 C 413.084 330.921 409.969 326.517 411.885 321.091 L 413.626 316.164 L 415.366 311.237 C 417.283 305.812 420.394 305.812 422.311 311.237 L 424.051 316.164 L 425.792 321.091 C 427.708 326.517 424.593 330.921 418.839 330.921 Z " fill="rgb(115,182,254)"/><path d=" M 425.465 334.04 L 430.347 332.316 L 435.274 330.575 C 440.7 328.659 440.7 325.547 435.274 323.63 L 430.347 321.89 L 425.465 320.165 L 424.051 316.164 L 422.311 311.237 C 420.394 305.812 417.283 305.812 415.366 311.237 L 413.626 316.164 L 412.212 320.165 L 407.33 321.89 L 402.403 323.63 C 396.977 325.547 396.977 328.659 402.403 330.575 L 407.33 332.316 L 412.212 334.04 L 413.626 338.041 L 415.366 342.968 C 417.283 348.394 420.394 348.394 422.311 342.968 L 424.051 338.041 L 425.465 334.04 Z " fill="rgb(115,182,254)"/><path d=" M 135.141 39.611 L 139.044 38.232 L 142.982 36.841 C 147.319 35.309 147.319 32.821 142.982 31.289 L 139.044 29.898 L 135.141 28.52 L 134.011 25.321 L 132.62 21.383 C 131.088 17.046 128.601 17.046 127.069 21.383 L 125.677 25.321 L 124.548 28.52 L 120.645 29.898 L 116.706 31.289 C 112.369 32.821 112.369 35.309 116.706 36.841 L 120.645 38.232 L 124.548 39.611 L 125.677 42.809 L 127.069 46.747 C 128.601 51.084 131.088 51.084 132.62 46.747 L 134.011 42.809 L 135.141 39.611 Z " fill="rgb(115,182,254)"/></g></svg>