<?xml version="1.0" encoding="UTF-8" standalone="no"?><!-- Generator: Gravit.io --><svg xmlns="http://www.w3.org/2000/svg" xmlns:xlink="http://www.w3.org/1999/xlink" style="isolation:isolate" viewBox="0 0 500 500" width="500pt" height="500pt"><defs><clipPath id="_clipPath_QHsWvYNAgRk1uSezkLeVihEojPo7Znm2"><rect width="500" height="500"/></clipPath></defs><g clip-path="url(#_clipPath_QHsWvYNAgRk1uSezkLeVihEojPo7Znm2)"><path d=" M 6.826 146.142 C 26.882 173.211 46.891 191.74 66.787 201.661 C 187.063 212.576 329.214 212.598 493.174 201.661 L 413.226 146.142 L 6.826 146.142 Z " fill="rgb(143,197,255)"/><path d=" M 6.826 146.142 Q 6.826 321.139 6.826 365.998 C 6.826 410.858 32.143 472.151 113.423 474.816 C 194.703 477.481 377.102 474.816 404.343 474.816 C 431.585 474.816 484.291 452.904 484.291 401.53 Q 484.291 350.157 493.174 201.661 L 66.787 201.661 L 6.826 146.142 Z " fill="rgb(114,183,254)"/><path d=" M 133.92 475.341 Q 133.668 475.08 133.41 474.816 Q 79.001 474.816 66.787 388.206 L 66.787 201.661 L 6.826 146.142 Q 6.826 321.139 6.826 365.998 C 6.826 410.858 32.143 472.151 113.423 474.816 C 119.693 475.021 126.564 475.195 133.92 475.341 Z " fill-rule="evenodd" fill="rgb(59,130,246)"/><circle vector-effect="non-scaling-stroke" cx="135.7595308503613" cy="403.75105440412057" r="19.986897600216878" fill="rgb(24,0,42)"/><circle vector-effect="non-scaling-stroke" cx="424.3301624018917" cy="403.75105440412057" r="19.986897600216878" fill="rgb(24,0,42)"/><path d=" M 75.67 24 L 104.54 48.428 L 104.54 186.116 L 75.67 159.245 L 75.67 24 Z " fill="rgb(189,200,210)"/><path d=" M 142.293 186.116 L 104.54 186.116 L 104.54 48.428 L 142.293 48.428 L 142.293 186.116 Z " fill="rgb(239,236,237)"/><path d=" M 75.67 24 L 108.981 24 L 142.293 48.428 L 104.54 48.428 L 75.67 24 Z " fill="rgb(251,251,251)"/><path d=" M 357.707 24 L 386.577 48.428 L 386.577 186.116 L 357.707 159.245 L 357.707 24 Z " fill="rgb(189,200,210)"/><path d=" M 424.33 186.116 L 386.577 186.116 L 386.577 48.428 L 424.33 48.428 L 424.33 186.116 Z " fill="rgb(238,236,236)"/><path d=" M 357.707 24 L 391.019 24 L 424.33 48.428 L 386.577 48.428 L 357.707 24 Z " fill="rgb(251,251,251)"/></g></svg>