<?xml version="1.0" encoding="UTF-8" standalone="no"?><!-- Generator: Gravit.io --><svg xmlns="http://www.w3.org/2000/svg" xmlns:xlink="http://www.w3.org/1999/xlink" style="isolation:isolate" viewBox="0 0 500 500" width="500pt" height="500pt"><defs><clipPath id="_clipPath_WSnqP686J4cAM5ZntcUFQVvdrtdGdXVt"><rect width="500" height="500"/></clipPath></defs><g clip-path="url(#_clipPath_WSnqP686J4cAM5ZntcUFQVvdrtdGdXVt)"><rect width="500" height="500" style="fill:rgb(59,130,246)" fill-opacity="0"/><path d="M 95 0 L 405 0 C 457.432 0 500 42.568 500 95 L 500 405 C 500 457.432 457.432 500 405 500 L 95 500 C 42.568 500 0 457.432 0 405 L 0 95 C 0 42.568 42.568 0 95 0 Z" style="stroke:none;fill:#3B82F6;stroke-miterlimit:10;"/><path d=" M 313.364 427.727 L 403 427.727 C 412.383 427.727 420 420.11 420 410.727 L 420 257.727 C 420 155.372 343.826 72.273 250 72.273 L 250 72.273 C 156.174 72.273 80 155.372 80 257.727 L 80 410.727 C 80 420.11 87.617 427.727 97 427.727 L 186.493 427.727 C 195.875 427.727 203.493 420.11 203.493 410.727 L 203.493 304.235 L 187.132 320.596 C 180.497 327.23 169.725 327.23 163.09 320.596 L 129.985 287.49 C 123.551 281.057 123.551 270.61 129.985 264.176 L 249.464 144.697 L 249.856 145.09 L 250.536 144.41 L 369.651 263.525 C 376.286 270.16 376.286 280.933 369.651 287.567 L 336.766 320.452 C 330.132 327.086 319.359 327.086 312.725 320.452 L 296.364 304.091 L 296.364 410.727 C 296.364 420.11 303.981 427.727 313.364 427.727 Z " fill="rgb(255,255,255)"/></g></svg>